<?xml version="1.0" encoding="UTF-8"?><svg id="b" xmlns="http://www.w3.org/2000/svg" viewBox="0 0 184.92 187.06"><g id="c"><path d="M63.23,0h26.85v26.86h-26.85V0Z" style="fill:#82347f; stroke-width:0px;"/><path d="M94.83,0h26.86v26.86h-26.86V0Z" style="fill:#222962; stroke-width:0px;"/><path d="M63.23,32.04h26.85v26.86h-26.85v-26.86Z" style="fill:#f8b32b; stroke-width:0px;"/><path d="M94.83,32.04h26.86v26.86h-26.86v-26.86Z" style="fill:#991936; stroke-width:0px;"/><path d="M0,64.08h26.86v26.86H0v-26.86Z" style="fill:#f8b32b; stroke-width:0px;"/><path d="M31.61,64.08h26.86v26.86h-26.86v-26.86Z" style="fill:#e6121d; stroke-width:0px;"/><path d="M63.23,64.08h26.85v26.86h-26.85v-26.86Z" style="fill:#991936; stroke-width:0px;"/><path d="M94.83,64.08h26.86v26.86h-26.86v-26.86Z" style="fill:#f8b32b; stroke-width:0px;"/><path d="M126.44,64.08h26.86v26.86h-26.86v-26.86Z" style="fill:#222962; stroke-width:0px;"/><path d="M158.06,64.08h26.86v26.86h-26.86v-26.86Z" style="fill:#e6121d; stroke-width:0px;"/><path d="M0,96.12h26.86v26.86H0v-26.86Z" style="fill:#222962; stroke-width:0px;"/><path d="M31.61,96.12h26.86v26.86h-26.86v-26.86Z" style="fill:#82347f; stroke-width:0px;"/><path d="M63.23,96.12h26.85v26.86h-26.85v-26.86Z" style="fill:#222962; stroke-width:0px;"/><path d="M94.83,96.12h26.86v26.86h-26.86v-26.86Z" style="fill:#e6121d; stroke-width:0px;"/><path d="M126.44,96.12h26.86v26.86h-26.86v-26.86Z" style="fill:#82347f; stroke-width:0px;"/><path d="M158.06,96.12h26.86v26.86h-26.86v-26.86Z" style="fill:#991936; stroke-width:0px;"/><path d="M63.23,128.15h26.85v26.87h-26.85v-26.87Z" style="fill:#82347f; stroke-width:0px;"/><path d="M94.83,128.15h26.86v26.87h-26.86v-26.87Z" style="fill:#991936; stroke-width:0px;"/><path d="M63.23,160.2h26.85v26.86h-26.85v-26.86Z" style="fill:#e6121d; stroke-width:0px;"/><path d="M94.83,160.2h26.86v26.86h-26.86v-26.86Z" style="fill:#f8b32b; stroke-width:0px;"/></g></svg>